<svg xmlns="http://www.w3.org/2000/svg" width="1" height="120" fill="none"><g clip-path="url(#a)"><path fill="#fff" d="M0 0h1v120H0z"/><path fill="#DEFFEC" d="M-791 40c0-22.091 17.909-40 40-40H752c22.091 0 40 17.909 40 40v40H-791V40Z"/><path fill="#7ECFA1" d="M-791 80c0-22.091 17.909-40 40-40H752c22.091 0 40 17.909 40 40v40H-791V80Z"/><path fill="#26A65D" d="M-791 120c0-22.091 17.909-40 40-40H752c22.091 0 40 17.909 40 40v40H-791v-40Z"/></g><defs><clipPath id="a"><path fill="#fff" d="M0 0h1v120H0z"/></clipPath></defs></svg>