<svg xmlns="http://www.w3.org/2000/svg" width="40" height="120" fill="none"><g clip-path="url(#a)"><path fill="#fff" d="M0 0h40v120H0z"/><path fill="#DEFFEC" d="M0 40C0 17.909 17.909 0 40 0h1503c22.09 0 40 17.909 40 40v40H0V40Z"/><path fill="#7ECFA1" d="M0 80c0-22.091 17.909-40 40-40h1503c22.09 0 40 17.909 40 40v40H0V80Z"/><path fill="#26A65D" d="M0 120c0-22.091 17.909-40 40-40h1503c22.09 0 40 17.909 40 40v40H0v-40Z"/></g><defs><clipPath id="a"><path fill="#fff" d="M0 0h40v120H0z"/></clipPath></defs></svg>