<svg xmlns="http://www.w3.org/2000/svg" width="40" height="120" fill="none"><g clip-path="url(#a)"><path fill="#fff" d="M40 0H0v120h40z"/><path fill="#DEFFEC" d="M40 40C40 17.909 22.091 0 0 0h-1503c-22.09 0-40 17.909-40 40v40H40V40Z"/><path fill="#7ECFA1" d="M40 80c0-22.091-17.909-40-40-40h-1503c-22.09 0-40 17.909-40 40v40H40V80Z"/><path fill="#26A65D" d="M40 120c0-22.091-17.909-40-40-40h-1503c-22.09 0-40 17.909-40 40v40H40v-40Z"/></g><defs><clipPath id="a"><path fill="#fff" d="M40 0H0v120h40z"/></clipPath></defs></svg>