<svg xmlns="http://www.w3.org/2000/svg" width="123" height="36" fill="none"><g clip-path="url(#a)"><rect width="36" height="36" fill="#26A65D" rx="11.25"/><rect width="28.125" height="28.125" x="3.938" y="7.875" fill="#7ECFA1" rx="9"/><path fill="#DEFFEC" fill-rule="evenodd" d="M8.39 19.917c-.515 1.24-.515 2.813-.515 5.958s0 4.718.515 5.958a6.756 6.756 0 0 0 3.66 3.653c1.243.514 2.818.514 5.97.514 3.15 0 4.726 0 5.968-.514 2.314-.956 3.346-2.004 3.798-3.285.19-.539.285-.808.173-1.403-.087-.462-.425-1.03-.79-1.327-.468-.382-1.175-.495-2.589-.722-1.381-.22-2.616-.931-2.616-2.874 0-1.917 1.205-2.634 2.564-2.865 1.437-.244 2.155-.367 2.619-.75.366-.302.692-.854.779-1.321.11-.59.01-.873-.188-1.439-.46-1.315-1.483-2.438-3.75-3.236-1.242-.514-2.818-.514-5.969-.514-3.15 0-4.726 0-5.97.514a6.756 6.756 0 0 0-3.66 3.653Z" clip-rule="evenodd"/><rect width="2.813" height="2.807" x="23.625" y="24.469" fill="#DEFFEC" rx="1.404"/><path fill="#fff" d="M52.72 5.44h5.688v20.736h5.832V31H52.72V5.44Zm12.586 0h12.276v4.824h-6.588v5.076h6.048v4.824h-6.048v6.012h6.732V31h-12.42V5.44ZM85.47 31.468c-3.636 0-5.832-1.944-7.596-6.336l4.572-2.34c1.116 2.772 2.088 4.104 3.132 4.104.684 0 1.296-.648 1.296-1.98 0-1.44-.864-2.592-2.268-3.924l-1.476-1.404c-2.736-2.628-4.716-4.608-4.716-7.668 0-3.816 2.556-6.948 6.624-6.948 3.924 0 5.868 2.376 7.344 5.976l-4.464 2.16c-1.08-2.52-1.836-3.564-2.808-3.564-.756 0-1.26.54-1.26 1.728 0 1.116 1.152 2.268 2.376 3.42l1.548 1.476c2.52 2.376 4.536 4.5 4.536 7.956 0 4.104-2.88 7.344-6.84 7.344Zm14.695 0c-3.636 0-5.832-1.944-7.596-6.336l4.572-2.34c1.116 2.772 2.088 4.104 3.132 4.104.684 0 1.296-.648 1.296-1.98 0-1.44-.864-2.592-2.268-3.924l-1.476-1.404C95.09 16.96 93.11 14.98 93.11 11.92c0-3.816 2.556-6.948 6.624-6.948 3.924 0 5.868 2.376 7.344 5.976l-4.464 2.16c-1.08-2.52-1.836-3.564-2.808-3.564-.756 0-1.26.54-1.26 1.728 0 1.116 1.152 2.268 2.376 3.42l1.548 1.476c2.52 2.376 4.536 4.5 4.536 7.956 0 4.104-2.88 7.344-6.84 7.344Zm12.27-26.028 1.512 6.624c.288 1.152.576 2.592.612 3.024.036-.432.324-1.656.648-3.024l1.62-6.624h5.832l-5.4 16.704V31h-5.688v-8.892l-5.4-16.668h6.264Z"/></g><defs><clipPath id="a"><path fill="#fff" d="M0 0h123v36H0z"/></clipPath></defs></svg>